{
    "asset" : {
        "generator" : "Khronos glTF Blender I/O v1.3.48",
        "version" : "2.0"
    },
    "scene" : 0,
    "scenes" : [
        {
            "name" : "Scene",
            "nodes" : [
                0,
                1,
                2,
                3,
                4
            ]
        }
    ],
    "nodes" : [
        {
            "mesh" : 0,
            "name" : "SC_Logo_White_1",
            "rotation" : [
                0.7071068286895752,
                0,
                0,
                0.7071067094802856
            ],
            "scale" : [
                1.1677035093307495,
                1.1677035093307495,
                1.1677035093307495
            ],
            "translation" : [
                -0.0055684372782707214,
                1.614931344985962,
                2.8360037803649902
            ]
        },
        {
            "mesh" : 1,
            "name" : "SC_Logo_White_2",
            "rotation" : [
                0,
                -0.7071067094802856,
                0.7071068286895752,
                5.338507236274381e-08
            ],
            "scale" : [
                1.1677035093307495,
                1.1677035093307495,
                1.1677035093307495
            ],
            "translation" : [
                0.023148156702518463,
                1.614931344985962,
                -2.843780994415283
            ]
        },
        {
            "mesh" : 2,
            "name" : "Kiosk_Wood",
            "scale" : [
                2.7957537174224854,
                2.7957537174224854,
                2.7957537174224854
            ],
            "translation" : [
                0,
                2.822754383087158,
                0
            ]
        },
        {
            "mesh" : 3,
            "name" : "Kiosk_White",
            "scale" : [
                -2.617772102355957,
                -2.617772102355957,
                -2.617772102355957
            ],
            "translation" : [
                -0.01674533076584339,
                2.64477276802063,
                -0.008372665382921696
            ]
        },
        {
            "mesh" : 4,
            "name" : "Kiosk_Top",
            "scale" : [
                3.704732894897461,
                3.704732894897461,
                3.704732894897461
            ],
            "translation" : [
                0,
                3.986152172088623,
                0
            ]
        }
    ],
    "materials" : [
        {
            "doubleSided" : true,
            "emissiveFactor" : [
                0,
                0,
                0
            ],
            "name" : "service_desk_combined_01:Red.001",
            "pbrMetallicRoughness" : {
                "baseColorFactor" : [
                    0.6869999766349792,
                    0.07900500297546387,
                    0.07900500297546387,
                    1
                ],
                "metallicFactor" : 0.5,
                "roughnessFactor" : 0.7487671971321106
            }
        },
        {
            "doubleSided" : true,
            "emissiveFactor" : [
                0,
                0,
                0
            ],
            "name" : "service_desk_combined_01:White",
            "pbrMetallicRoughness" : {
                "baseColorFactor" : [
                    1,
                    1,
                    1,
                    1
                ],
                "metallicFactor" : 0.5,
                "roughnessFactor" : 0.7487671971321106
            }
        },
        {
            "doubleSided" : true,
            "emissiveFactor" : [
                0,
                0,
                0
            ],
            "name" : "wood",
            "pbrMetallicRoughness" : {
                "baseColorTexture" : {
                    "index" : 0,
                    "texCoord" : 0
                },
                "metallicFactor" : 0,
                "roughnessFactor" : 0.804964542388916
            }
        },
        {
            "doubleSided" : true,
            "emissiveFactor" : [
                0,
                0,
                0
            ],
            "name" : "desktop",
            "pbrMetallicRoughness" : {
                "baseColorFactor" : [
                    0.800000011920929,
                    0.800000011920929,
                    0.800000011920929,
                    1
                ],
                "metallicFactor" : 0,
                "roughnessFactor" : 0.8751773238182068
            }
        }
    ],
    "meshes" : [
        {
            "name" : "Mesh.004",
            "primitives" : [
                {
                    "attributes" : {
                        "POSITION" : 0,
                        "NORMAL" : 1,
                        "TEXCOORD_0" : 2
                    },
                    "indices" : 3,
                    "material" : 0
                },
                {
                    "attributes" : {
                        "POSITION" : 4,
                        "NORMAL" : 5,
                        "TEXCOORD_0" : 6
                    },
                    "indices" : 7,
                    "material" : 1
                }
            ]
        },
        {
            "name" : "Mesh.003",
            "primitives" : [
                {
                    "attributes" : {
                        "POSITION" : 8,
                        "NORMAL" : 9,
                        "TEXCOORD_0" : 10
                    },
                    "indices" : 3,
                    "material" : 0
                },
                {
                    "attributes" : {
                        "POSITION" : 11,
                        "NORMAL" : 12,
                        "TEXCOORD_0" : 13
                    },
                    "indices" : 7,
                    "material" : 1
                }
            ]
        },
        {
            "name" : "Cylinder",
            "primitives" : [
                {
                    "attributes" : {
                        "POSITION" : 14,
                        "NORMAL" : 15,
                        "TEXCOORD_0" : 16
                    },
                    "indices" : 17,
                    "material" : 2
                }
            ]
        },
        {
            "name" : "Cylinder.001",
            "primitives" : [
                {
                    "attributes" : {
                        "POSITION" : 18,
                        "NORMAL" : 19,
                        "TEXCOORD_0" : 20
                    },
                    "indices" : 21,
                    "material" : 3
                }
            ]
        },
        {
            "name" : "Cylinder.002",
            "primitives" : [
                {
                    "attributes" : {
                        "POSITION" : 22,
                        "NORMAL" : 23,
                        "TEXCOORD_0" : 24
                    },
                    "indices" : 25,
                    "material" : 3
                }
            ]
        }
    ],
    "textures" : [
        {
            "source" : 0
        }
    ],
    "images" : [
        {
            "bufferView" : 18,
            "mimeType" : "image/png",
            "name" : "wood_texture_(2)"
        }
    ],
    "accessors" : [
        {
            "bufferView" : 0,
            "componentType" : 5126,
            "count" : 470,
            "max" : [
                0.9088107943534851,
                0.012166023254394531,
                0.0850212574005127
            ],
            "min" : [
                0.6999018788337708,
                -0.023500442504882812,
                -0.025171875953674316
            ],
            "type" : "VEC3"
        },
        {
            "bufferView" : 1,
            "componentType" : 5126,
            "count" : 470,
            "type" : "VEC3"
        },
        {
            "bufferView" : 2,
            "componentType" : 5126,
            "count" : 470,
            "type" : "VEC2"
        },
        {
            "bufferView" : 3,
            "componentType" : 5123,
            "count" : 786,
            "type" : "SCALAR"
        },
        {
            "bufferView" : 4,
            "componentType" : 5126,
            "count" : 5826,
            "max" : [
                0.9260687232017517,
                0.027195453643798828,
                0.3520406484603882
            ],
            "min" : [
                -0.9014759063720703,
                -0.026820659637451172,
                -0.47229695320129395
            ],
            "type" : "VEC3"
        },
        {
            "bufferView" : 5,
            "componentType" : 5126,
            "count" : 5826,
            "type" : "VEC3"
        },
        {
            "bufferView" : 6,
            "componentType" : 5126,
            "count" : 5826,
            "type" : "VEC2"
        },
        {
            "bufferView" : 7,
            "componentType" : 5123,
            "count" : 9900,
            "type" : "SCALAR"
        },
        {
            "bufferView" : 8,
            "componentType" : 5126,
            "count" : 470,
            "max" : [
                0.9088107943534851,
                0.012166023254394531,
                0.0850212574005127
            ],
            "min" : [
                0.6999018788337708,
                -0.023500442504882812,
                -0.025171875953674316
            ],
            "type" : "VEC3"
        },
        {
            "bufferView" : 9,
            "componentType" : 5126,
            "count" : 470,
            "type" : "VEC3"
        },
        {
            "bufferView" : 10,
            "componentType" : 5126,
            "count" : 470,
            "type" : "VEC2"
        },
        {
            "bufferView" : 11,
            "componentType" : 5126,
            "count" : 5826,
            "max" : [
                0.9260687232017517,
                0.027195453643798828,
                0.3520406484603882
            ],
            "min" : [
                -0.9014759063720703,
                -0.026820659637451172,
                -0.47229695320129395
            ],
            "type" : "VEC3"
        },
        {
            "bufferView" : 12,
            "componentType" : 5126,
            "count" : 5826,
            "type" : "VEC3"
        },
        {
            "bufferView" : 13,
            "componentType" : 5126,
            "count" : 5826,
            "type" : "VEC2"
        },
        {
            "bufferView" : 14,
            "componentType" : 5126,
            "count" : 324,
            "max" : [
                1,
                0.356010377407074,
                1
            ],
            "min" : [
                -1,
                -0.8761551380157471,
                -1
            ],
            "type" : "VEC3"
        },
        {
            "bufferView" : 15,
            "componentType" : 5126,
            "count" : 324,
            "type" : "VEC3"
        },
        {
            "bufferView" : 16,
            "componentType" : 5126,
            "count" : 324,
            "type" : "VEC2"
        },
        {
            "bufferView" : 17,
            "componentType" : 5123,
            "count" : 984,
            "type" : "SCALAR"
        },
        {
            "bufferView" : 19,
            "componentType" : 5126,
            "count" : 677,
            "max" : [
                0.9925260543823242,
                1,
                1.2141330242156982
            ],
            "min" : [
                -1.0074739456176758,
                -0.07579925656318665,
                -1.2200990915298462
            ],
            "type" : "VEC3"
        },
        {
            "bufferView" : 20,
            "componentType" : 5126,
            "count" : 677,
            "type" : "VEC3"
        },
        {
            "bufferView" : 21,
            "componentType" : 5126,
            "count" : 677,
            "type" : "VEC2"
        },
        {
            "bufferView" : 22,
            "componentType" : 5123,
            "count" : 2988,
            "type" : "SCALAR"
        },
        {
            "bufferView" : 23,
            "componentType" : 5126,
            "count" : 316,
            "max" : [
                0.8582224249839783,
                0.000388395506888628,
                0.6068547964096069
            ],
            "min" : [
                -0.8582223653793335,
                -0.045369163155555725,
                -0.6068556904792786
            ],
            "type" : "VEC3"
        },
        {
            "bufferView" : 24,
            "componentType" : 5126,
            "count" : 316,
            "type" : "VEC3"
        },
        {
            "bufferView" : 25,
            "componentType" : 5126,
            "count" : 316,
            "type" : "VEC2"
        },
        {
            "bufferView" : 26,
            "componentType" : 5123,
            "count" : 1536,
            "type" : "SCALAR"
        }
    ],
    "bufferViews" : [
        {
            "buffer" : 0,
            "byteLength" : 5640,
            "byteOffset" : 0
        },
        {
            "buffer" : 0,
            "byteLength" : 5640,
            "byteOffset" : 5640
        },
        {
            "buffer" : 0,
            "byteLength" : 3760,
            "byteOffset" : 11280
        },
        {
            "buffer" : 0,
            "byteLength" : 1572,
            "byteOffset" : 15040
        },
        {
            "buffer" : 0,
            "byteLength" : 69912,
            "byteOffset" : 16612
        },
        {
            "buffer" : 0,
            "byteLength" : 69912,
            "byteOffset" : 86524
        },
        {
            "buffer" : 0,
            "byteLength" : 46608,
            "byteOffset" : 156436
        },
        {
            "buffer" : 0,
            "byteLength" : 19800,
            "byteOffset" : 203044
        },
        {
            "buffer" : 0,
            "byteLength" : 5640,
            "byteOffset" : 222844
        },
        {
            "buffer" : 0,
            "byteLength" : 5640,
            "byteOffset" : 228484
        },
        {
            "buffer" : 0,
            "byteLength" : 3760,
            "byteOffset" : 234124
        },
        {
            "buffer" : 0,
            "byteLength" : 69912,
            "byteOffset" : 237884
        },
        {
            "buffer" : 0,
            "byteLength" : 69912,
            "byteOffset" : 307796
        },
        {
            "buffer" : 0,
            "byteLength" : 46608,
            "byteOffset" : 377708
        },
        {
            "buffer" : 0,
            "byteLength" : 3888,
            "byteOffset" : 424316
        },
        {
            "buffer" : 0,
            "byteLength" : 3888,
            "byteOffset" : 428204
        },
        {
            "buffer" : 0,
            "byteLength" : 2592,
            "byteOffset" : 432092
        },
        {
            "buffer" : 0,
            "byteLength" : 1968,
            "byteOffset" : 434684
        },
        {
            "buffer" : 0,
            "byteLength" : 161370,
            "byteOffset" : 436652
        },
        {
            "buffer" : 0,
            "byteLength" : 8124,
            "byteOffset" : 598024
        },
        {
            "buffer" : 0,
            "byteLength" : 8124,
            "byteOffset" : 606148
        },
        {
            "buffer" : 0,
            "byteLength" : 5416,
            "byteOffset" : 614272
        },
        {
            "buffer" : 0,
            "byteLength" : 5976,
            "byteOffset" : 619688
        },
        {
            "buffer" : 0,
            "byteLength" : 3792,
            "byteOffset" : 625664
        },
        {
            "buffer" : 0,
            "byteLength" : 3792,
            "byteOffset" : 629456
        },
        {
            "buffer" : 0,
            "byteLength" : 2528,
            "byteOffset" : 633248
        },
        {
            "buffer" : 0,
            "byteLength" : 3072,
            "byteOffset" : 635776
        }
    ],
    "buffers" : [
        {
            "byteLength" : 638848,
            "uri" : "data:application/octet-stream;base64,"
        }
    ]
}
