{
    "asset" : {
        "generator" : "Khronos glTF Blender I/O v1.3.48",
        "version" : "2.0"
    },
    "scene" : 0,
    "scenes" : [
        {
            "name" : "Scene",
            "nodes" : [
                0,
                1,
                2,
                3
            ]
        }
    ],
    "nodes" : [
        {
            "mesh" : 0,
            "name" : "Kiosk_Wood",
            "scale" : [
                2.7957537174224854,
                2.7957537174224854,
                2.7957537174224854
            ],
            "translation" : [
                0,
                2.822754383087158,
                0
            ]
        },
        {
            "mesh" : 1,
            "name" : "Kiosk_White",
            "scale" : [
                -2.617772102355957,
                -2.617772102355957,
                -2.617772102355957
            ],
            "translation" : [
                -0.01674533076584339,
                2.64477276802063,
                -0.008372665382921696
            ]
        },
        {
            "mesh" : 2,
            "name" : "Kiosk_Top",
            "scale" : [
                3.704732894897461,
                3.704732894897461,
                3.704732894897461
            ],
            "translation" : [
                0,
                3.986152172088623,
                0
            ]
        },
        {
            "mesh" : 3,
            "name" : "RP_Logos",
            "rotation" : [
                0.6541017293930054,
                -0.2686094641685486,
                0.26860952377319336,
                0.6541016697883606
            ],
            "scale" : [
                1.012744665145874,
                1.012744665145874,
                1.012744665145874
            ],
            "translation" : [
                0,
                -0.2601514756679535,
                0
            ]
        }
    ],
    "materials" : [
        {
            "doubleSided" : true,
            "emissiveFactor" : [
                0,
                0,
                0
            ],
            "name" : "wood",
            "pbrMetallicRoughness" : {
                "baseColorTexture" : {
                    "index" : 0,
                    "texCoord" : 0
                },
                "metallicFactor" : 0,
                "roughnessFactor" : 0.804964542388916
            }
        },
        {
            "doubleSided" : true,
            "emissiveFactor" : [
                0,
                0,
                0
            ],
            "name" : "desktop",
            "pbrMetallicRoughness" : {
                "baseColorFactor" : [
                    0.800000011920929,
                    0.800000011920929,
                    0.800000011920929,
                    1
                ],
                "metallicFactor" : 0,
                "roughnessFactor" : 0.8751773238182068
            }
        },
        {
            "doubleSided" : true,
            "emissiveFactor" : [
                0,
                0,
                0
            ],
            "name" : "RP_Orange.001",
            "pbrMetallicRoughness" : {
                "baseColorFactor" : [
                    1,
                    0.23455046117305756,
                    0,
                    1
                ],
                "metallicFactor" : 0,
                "roughnessFactor" : 0.5
            }
        },
        {
            "doubleSided" : true,
            "emissiveFactor" : [
                0,
                0,
                0
            ],
            "name" : "RP_Blue.001",
            "pbrMetallicRoughness" : {
                "baseColorFactor" : [
                    0,
                    0.16826941072940826,
                    0.5332764983177185,
                    1
                ],
                "metallicFactor" : 0,
                "roughnessFactor" : 0.5
            }
        }
    ],
    "meshes" : [
        {
            "name" : "Cylinder",
            "primitives" : [
                {
                    "attributes" : {
                        "POSITION" : 0,
                        "NORMAL" : 1,
                        "TEXCOORD_0" : 2
                    },
                    "indices" : 3,
                    "material" : 0
                }
            ]
        },
        {
            "name" : "Cylinder.001",
            "primitives" : [
                {
                    "attributes" : {
                        "POSITION" : 4,
                        "NORMAL" : 5,
                        "TEXCOORD_0" : 6
                    },
                    "indices" : 7,
                    "material" : 1
                }
            ]
        },
        {
            "name" : "Cylinder.002",
            "primitives" : [
                {
                    "attributes" : {
                        "POSITION" : 8,
                        "NORMAL" : 9,
                        "TEXCOORD_0" : 10
                    },
                    "indices" : 11,
                    "material" : 1
                }
            ]
        },
        {
            "name" : "desk_01.001",
            "primitives" : [
                {
                    "attributes" : {
                        "POSITION" : 12,
                        "NORMAL" : 13,
                        "TEXCOORD_0" : 14
                    },
                    "indices" : 15,
                    "material" : 2
                },
                {
                    "attributes" : {
                        "POSITION" : 16,
                        "NORMAL" : 17,
                        "TEXCOORD_0" : 18
                    },
                    "indices" : 19,
                    "material" : 3
                }
            ]
        }
    ],
    "textures" : [
        {
            "source" : 0
        }
    ],
    "images" : [
        {
            "bufferView" : 4,
            "mimeType" : "image/png",
            "name" : "wood_texture_(2)"
        }
    ],
    "accessors" : [
        {
            "bufferView" : 0,
            "componentType" : 5126,
            "count" : 324,
            "max" : [
                1,
                0.356010377407074,
                1
            ],
            "min" : [
                -1,
                -0.8761551380157471,
                -1
            ],
            "type" : "VEC3"
        },
        {
            "bufferView" : 1,
            "componentType" : 5126,
            "count" : 324,
            "type" : "VEC3"
        },
        {
            "bufferView" : 2,
            "componentType" : 5126,
            "count" : 324,
            "type" : "VEC2"
        },
        {
            "bufferView" : 3,
            "componentType" : 5123,
            "count" : 984,
            "type" : "SCALAR"
        },
        {
            "bufferView" : 5,
            "componentType" : 5126,
            "count" : 677,
            "max" : [
                0.9925260543823242,
                1,
                1.2141330242156982
            ],
            "min" : [
                -1.0074739456176758,
                -0.07579925656318665,
                -1.2200990915298462
            ],
            "type" : "VEC3"
        },
        {
            "bufferView" : 6,
            "componentType" : 5126,
            "count" : 677,
            "type" : "VEC3"
        },
        {
            "bufferView" : 7,
            "componentType" : 5126,
            "count" : 677,
            "type" : "VEC2"
        },
        {
            "bufferView" : 8,
            "componentType" : 5123,
            "count" : 2988,
            "type" : "SCALAR"
        },
        {
            "bufferView" : 9,
            "componentType" : 5126,
            "count" : 316,
            "max" : [
                0.8582224249839783,
                0.000388395506888628,
                0.6068547964096069
            ],
            "min" : [
                -0.8582223653793335,
                -0.045369163155555725,
                -0.6068556904792786
            ],
            "type" : "VEC3"
        },
        {
            "bufferView" : 10,
            "componentType" : 5126,
            "count" : 316,
            "type" : "VEC3"
        },
        {
            "bufferView" : 11,
            "componentType" : 5126,
            "count" : 316,
            "type" : "VEC2"
        },
        {
            "bufferView" : 12,
            "componentType" : 5123,
            "count" : 1536,
            "type" : "SCALAR"
        },
        {
            "bufferView" : 13,
            "componentType" : 5126,
            "count" : 17120,
            "max" : [
                2.822376012802124,
                2.793386936187744,
                -1.5607270002365112
            ],
            "min" : [
                -2.8284239768981934,
                -2.826612949371338,
                -2.1451070308685303
            ],
            "type" : "VEC3"
        },
        {
            "bufferView" : 14,
            "componentType" : 5126,
            "count" : 17120,
            "type" : "VEC3"
        },
        {
            "bufferView" : 15,
            "componentType" : 5126,
            "count" : 17120,
            "type" : "VEC2"
        },
        {
            "bufferView" : 16,
            "componentType" : 5123,
            "count" : 62220,
            "type" : "SCALAR"
        },
        {
            "bufferView" : 17,
            "componentType" : 5126,
            "count" : 22974,
            "max" : [
                2.7973759174346924,
                2.802370071411133,
                -1.5584330558776855
            ],
            "min" : [
                -2.8044259548187256,
                -2.835869073867798,
                -2.219228982925415
            ],
            "type" : "VEC3"
        },
        {
            "bufferView" : 18,
            "componentType" : 5126,
            "count" : 22974,
            "type" : "VEC3"
        },
        {
            "bufferView" : 19,
            "componentType" : 5126,
            "count" : 22974,
            "type" : "VEC2"
        },
        {
            "bufferView" : 20,
            "componentType" : 5123,
            "count" : 96768,
            "type" : "SCALAR"
        }
    ],
    "bufferViews" : [
        {
            "buffer" : 0,
            "byteLength" : 3888,
            "byteOffset" : 0
        },
        {
            "buffer" : 0,
            "byteLength" : 3888,
            "byteOffset" : 3888
        },
        {
            "buffer" : 0,
            "byteLength" : 2592,
            "byteOffset" : 7776
        },
        {
            "buffer" : 0,
            "byteLength" : 1968,
            "byteOffset" : 10368
        },
        {
            "buffer" : 0,
            "byteLength" : 161370,
            "byteOffset" : 12336
        },
        {
            "buffer" : 0,
            "byteLength" : 8124,
            "byteOffset" : 173708
        },
        {
            "buffer" : 0,
            "byteLength" : 8124,
            "byteOffset" : 181832
        },
        {
            "buffer" : 0,
            "byteLength" : 5416,
            "byteOffset" : 189956
        },
        {
            "buffer" : 0,
            "byteLength" : 5976,
            "byteOffset" : 195372
        },
        {
            "buffer" : 0,
            "byteLength" : 3792,
            "byteOffset" : 201348
        },
        {
            "buffer" : 0,
            "byteLength" : 3792,
            "byteOffset" : 205140
        },
        {
            "buffer" : 0,
            "byteLength" : 2528,
            "byteOffset" : 208932
        },
        {
            "buffer" : 0,
            "byteLength" : 3072,
            "byteOffset" : 211460
        },
        {
            "buffer" : 0,
            "byteLength" : 205440,
            "byteOffset" : 214532
        },
        {
            "buffer" : 0,
            "byteLength" : 205440,
            "byteOffset" : 419972
        },
        {
            "buffer" : 0,
            "byteLength" : 136960,
            "byteOffset" : 625412
        },
        {
            "buffer" : 0,
            "byteLength" : 124440,
            "byteOffset" : 762372
        },
        {
            "buffer" : 0,
            "byteLength" : 275688,
            "byteOffset" : 886812
        },
        {
            "buffer" : 0,
            "byteLength" : 275688,
            "byteOffset" : 1162500
        },
        {
            "buffer" : 0,
            "byteLength" : 183792,
            "byteOffset" : 1438188
        },
        {
            "buffer" : 0,
            "byteLength" : 193536,
            "byteOffset" : 1621980
        }
    ],
    "buffers" : [
        {
            "byteLength" : 1815516,
            "uri" : "data:application/octet-stream;base64,"
        }
    ]
}
