{
    "asset" : {
        "generator" : "Khronos glTF Blender I/O v1.3.48",
        "version" : "2.0"
    },
    "scene" : 0,
    "scenes" : [
        {
            "name" : "Scene",
            "nodes" : [
                0,
                1,
                2
            ]
        }
    ],
    "nodes" : [
        {
            "mesh" : 0,
            "name" : "pCylinder1",
            "rotation" : [
                0.7071068286895752,
                0,
                0,
                0.7071067094802856
            ],
            "scale" : [
                2.106351137161255,
                2.106351137161255,
                0.568268895149231
            ],
            "translation" : [
                0,
                1.836369276046753,
                0
            ]
        },
        {
            "mesh" : 1,
            "name" : "polySurface21.001",
            "rotation" : [
                0.7071068286895752,
                0,
                0,
                0.7071067094802856
            ],
            "scale" : [
                1.1677035093307495,
                1.1677035093307495,
                1.1677035093307495
            ],
            "translation" : [
                -0.0055684372782707214,
                1.9785301685333252,
                1.959322452545166
            ]
        },
        {
            "mesh" : 2,
            "name" : "polySurface22",
            "rotation" : [
                0,
                -0.7071067094802856,
                0.7071068286895752,
                5.338507236274381e-08
            ],
            "scale" : [
                1.1677035093307495,
                1.1677035093307495,
                1.1677035093307495
            ],
            "translation" : [
                0.023148156702518463,
                1.9785301685333252,
                -1.9646244049072266
            ]
        }
    ],
    "materials" : [
        {
            "doubleSided" : true,
            "emissiveFactor" : [
                0,
                0,
                0
            ],
            "name" : "service_desk_combined_01:Black",
            "pbrMetallicRoughness" : {
                "baseColorFactor" : [
                    0,
                    0,
                    0,
                    1
                ],
                "metallicFactor" : 0.5,
                "roughnessFactor" : 0.7487671971321106
            }
        },
        {
            "doubleSided" : true,
            "emissiveFactor" : [
                0,
                0,
                0
            ],
            "name" : "service_desk_combined_01:Top_beige",
            "pbrMetallicRoughness" : {
                "baseColorFactor" : [
                    0.5509999990463257,
                    0.4171106219291687,
                    0.2931320071220398,
                    1
                ],
                "metallicFactor" : 0.5,
                "roughnessFactor" : 0.8532866835594177
            }
        },
        {
            "doubleSided" : true,
            "emissiveFactor" : [
                0,
                0,
                0
            ],
            "name" : "service_desk_combined_01:Middlewhite",
            "pbrMetallicRoughness" : {
                "baseColorFactor" : [
                    0.9031999707221985,
                    0.9031999707221985,
                    0.9031999707221985,
                    1
                ],
                "metallicFactor" : 0.6838709712028503,
                "roughnessFactor" : 0.7487671971321106
            }
        },
        {
            "doubleSided" : true,
            "emissiveFactor" : [
                0,
                0,
                0
            ],
            "name" : "service_desk_combined_01:Red",
            "pbrMetallicRoughness" : {
                "baseColorFactor" : [
                    0.6869999766349792,
                    0.07900500297546387,
                    0.07900500297546387,
                    1
                ],
                "metallicFactor" : 0.5,
                "roughnessFactor" : 0.7487671971321106
            }
        }
    ],
    "meshes" : [
        {
            "name" : "Mesh",
            "primitives" : [
                {
                    "attributes" : {
                        "POSITION" : 0,
                        "NORMAL" : 1,
                        "TEXCOORD_0" : 2
                    },
                    "indices" : 3,
                    "material" : 0
                },
                {
                    "attributes" : {
                        "POSITION" : 4,
                        "NORMAL" : 5,
                        "TEXCOORD_0" : 6
                    },
                    "indices" : 7,
                    "material" : 1
                },
                {
                    "attributes" : {
                        "POSITION" : 8,
                        "NORMAL" : 9,
                        "TEXCOORD_0" : 10
                    },
                    "indices" : 11,
                    "material" : 2
                },
                {
                    "attributes" : {
                        "POSITION" : 12,
                        "NORMAL" : 13,
                        "TEXCOORD_0" : 14
                    },
                    "indices" : 15,
                    "material" : 3
                }
            ]
        },
        {
            "name" : "Mesh.001",
            "primitives" : [
                {
                    "attributes" : {
                        "POSITION" : 16,
                        "NORMAL" : 17,
                        "TEXCOORD_0" : 18
                    },
                    "indices" : 19,
                    "material" : 3
                },
                {
                    "attributes" : {
                        "POSITION" : 20,
                        "NORMAL" : 21,
                        "TEXCOORD_0" : 22
                    },
                    "indices" : 23,
                    "material" : 0
                }
            ]
        },
        {
            "name" : "Mesh.002",
            "primitives" : [
                {
                    "attributes" : {
                        "POSITION" : 24,
                        "NORMAL" : 25,
                        "TEXCOORD_0" : 26
                    },
                    "indices" : 19,
                    "material" : 3
                },
                {
                    "attributes" : {
                        "POSITION" : 27,
                        "NORMAL" : 28,
                        "TEXCOORD_0" : 29
                    },
                    "indices" : 23,
                    "material" : 0
                }
            ]
        }
    ],
    "accessors" : [
        {
            "bufferView" : 0,
            "componentType" : 5126,
            "count" : 890,
            "max" : [
                0.987764298915863,
                0.9877644181251526,
                3.2133049964904785
            ],
            "min" : [
                -0.9877643585205078,
                -0.9877644777297974,
                1.033984661102295
            ],
            "type" : "VEC3"
        },
        {
            "bufferView" : 1,
            "componentType" : 5126,
            "count" : 890,
            "type" : "VEC3"
        },
        {
            "bufferView" : 2,
            "componentType" : 5126,
            "count" : 890,
            "type" : "VEC2"
        },
        {
            "bufferView" : 3,
            "componentType" : 5123,
            "count" : 4680,
            "type" : "SCALAR"
        },
        {
            "bufferView" : 4,
            "componentType" : 5126,
            "count" : 1921,
            "max" : [
                1.114236831665039,
                1.1142370700836182,
                2.449798107147217
            ],
            "min" : [
                -1.1142369508743286,
                -1.1142369508743286,
                -3.050428867340088
            ],
            "type" : "VEC3"
        },
        {
            "bufferView" : 5,
            "componentType" : 5126,
            "count" : 1921,
            "type" : "VEC3"
        },
        {
            "bufferView" : 6,
            "componentType" : 5126,
            "count" : 1921,
            "type" : "VEC2"
        },
        {
            "bufferView" : 7,
            "componentType" : 5123,
            "count" : 11400,
            "type" : "SCALAR"
        },
        {
            "bufferView" : 8,
            "componentType" : 5126,
            "count" : 440,
            "max" : [
                0.9045826196670532,
                0.904582679271698,
                1.0339847803115845
            ],
            "min" : [
                -0.9045825600624084,
                -0.9045826196670532,
                -1.7545852661132812
            ],
            "type" : "VEC3"
        },
        {
            "bufferView" : 9,
            "componentType" : 5126,
            "count" : 440,
            "type" : "VEC3"
        },
        {
            "bufferView" : 10,
            "componentType" : 5126,
            "count" : 440,
            "type" : "VEC2"
        },
        {
            "bufferView" : 11,
            "componentType" : 5123,
            "count" : 2400,
            "type" : "SCALAR"
        },
        {
            "bufferView" : 12,
            "componentType" : 5126,
            "count" : 520,
            "max" : [
                0.9765601754188538,
                0.9765602946281433,
                -1.7545850276947021
            ],
            "min" : [
                -0.9765601754188538,
                -0.9765604734420776,
                -2.7961268424987793
            ],
            "type" : "VEC3"
        },
        {
            "bufferView" : 13,
            "componentType" : 5126,
            "count" : 520,
            "type" : "VEC3"
        },
        {
            "bufferView" : 14,
            "componentType" : 5126,
            "count" : 520,
            "type" : "VEC2"
        },
        {
            "bufferView" : 15,
            "componentType" : 5123,
            "count" : 2880,
            "type" : "SCALAR"
        },
        {
            "bufferView" : 16,
            "componentType" : 5126,
            "count" : 288,
            "max" : [
                0.9088107943534851,
                0.012166023254394531,
                0.0850212574005127
            ],
            "min" : [
                0.6999018788337708,
                -0.023500442504882812,
                -0.025171875953674316
            ],
            "type" : "VEC3"
        },
        {
            "bufferView" : 17,
            "componentType" : 5126,
            "count" : 288,
            "type" : "VEC3"
        },
        {
            "bufferView" : 18,
            "componentType" : 5126,
            "count" : 288,
            "type" : "VEC2"
        },
        {
            "bufferView" : 19,
            "componentType" : 5123,
            "count" : 786,
            "type" : "SCALAR"
        },
        {
            "bufferView" : 20,
            "componentType" : 5126,
            "count" : 3808,
            "max" : [
                0.9260687232017517,
                0.027195453643798828,
                0.3520406484603882
            ],
            "min" : [
                -0.9014759063720703,
                -0.026820659637451172,
                -0.47229695320129395
            ],
            "type" : "VEC3"
        },
        {
            "bufferView" : 21,
            "componentType" : 5126,
            "count" : 3808,
            "type" : "VEC3"
        },
        {
            "bufferView" : 22,
            "componentType" : 5126,
            "count" : 3808,
            "type" : "VEC2"
        },
        {
            "bufferView" : 23,
            "componentType" : 5123,
            "count" : 9900,
            "type" : "SCALAR"
        },
        {
            "bufferView" : 24,
            "componentType" : 5126,
            "count" : 288,
            "max" : [
                0.9088107943534851,
                0.012166023254394531,
                0.0850212574005127
            ],
            "min" : [
                0.6999018788337708,
                -0.023500442504882812,
                -0.025171875953674316
            ],
            "type" : "VEC3"
        },
        {
            "bufferView" : 25,
            "componentType" : 5126,
            "count" : 288,
            "type" : "VEC3"
        },
        {
            "bufferView" : 26,
            "componentType" : 5126,
            "count" : 288,
            "type" : "VEC2"
        },
        {
            "bufferView" : 27,
            "componentType" : 5126,
            "count" : 3808,
            "max" : [
                0.9260687232017517,
                0.027195453643798828,
                0.3520406484603882
            ],
            "min" : [
                -0.9014759063720703,
                -0.026820659637451172,
                -0.47229695320129395
            ],
            "type" : "VEC3"
        },
        {
            "bufferView" : 28,
            "componentType" : 5126,
            "count" : 3808,
            "type" : "VEC3"
        },
        {
            "bufferView" : 29,
            "componentType" : 5126,
            "count" : 3808,
            "type" : "VEC2"
        }
    ],
    "bufferViews" : [
        {
            "buffer" : 0,
            "byteLength" : 10680,
            "byteOffset" : 0
        },
        {
            "buffer" : 0,
            "byteLength" : 10680,
            "byteOffset" : 10680
        },
        {
            "buffer" : 0,
            "byteLength" : 7120,
            "byteOffset" : 21360
        },
        {
            "buffer" : 0,
            "byteLength" : 9360,
            "byteOffset" : 28480
        },
        {
            "buffer" : 0,
            "byteLength" : 23052,
            "byteOffset" : 37840
        },
        {
            "buffer" : 0,
            "byteLength" : 23052,
            "byteOffset" : 60892
        },
        {
            "buffer" : 0,
            "byteLength" : 15368,
            "byteOffset" : 83944
        },
        {
            "buffer" : 0,
            "byteLength" : 22800,
            "byteOffset" : 99312
        },
        {
            "buffer" : 0,
            "byteLength" : 5280,
            "byteOffset" : 122112
        },
        {
            "buffer" : 0,
            "byteLength" : 5280,
            "byteOffset" : 127392
        },
        {
            "buffer" : 0,
            "byteLength" : 3520,
            "byteOffset" : 132672
        },
        {
            "buffer" : 0,
            "byteLength" : 4800,
            "byteOffset" : 136192
        },
        {
            "buffer" : 0,
            "byteLength" : 6240,
            "byteOffset" : 140992
        },
        {
            "buffer" : 0,
            "byteLength" : 6240,
            "byteOffset" : 147232
        },
        {
            "buffer" : 0,
            "byteLength" : 4160,
            "byteOffset" : 153472
        },
        {
            "buffer" : 0,
            "byteLength" : 5760,
            "byteOffset" : 157632
        },
        {
            "buffer" : 0,
            "byteLength" : 3456,
            "byteOffset" : 163392
        },
        {
            "buffer" : 0,
            "byteLength" : 3456,
            "byteOffset" : 166848
        },
        {
            "buffer" : 0,
            "byteLength" : 2304,
            "byteOffset" : 170304
        },
        {
            "buffer" : 0,
            "byteLength" : 1572,
            "byteOffset" : 172608
        },
        {
            "buffer" : 0,
            "byteLength" : 45696,
            "byteOffset" : 174180
        },
        {
            "buffer" : 0,
            "byteLength" : 45696,
            "byteOffset" : 219876
        },
        {
            "buffer" : 0,
            "byteLength" : 30464,
            "byteOffset" : 265572
        },
        {
            "buffer" : 0,
            "byteLength" : 19800,
            "byteOffset" : 296036
        },
        {
            "buffer" : 0,
            "byteLength" : 3456,
            "byteOffset" : 315836
        },
        {
            "buffer" : 0,
            "byteLength" : 3456,
            "byteOffset" : 319292
        },
        {
            "buffer" : 0,
            "byteLength" : 2304,
            "byteOffset" : 322748
        },
        {
            "buffer" : 0,
            "byteLength" : 45696,
            "byteOffset" : 325052
        },
        {
            "buffer" : 0,
            "byteLength" : 45696,
            "byteOffset" : 370748
        },
        {
            "buffer" : 0,
            "byteLength" : 30464,
            "byteOffset" : 416444
        }
    ],
    "buffers" : [
        {
            "byteLength" : 446908,
            "uri" : "data:application/octet-stream;base64,"
        }
    ]
}
